<svg width="57" height="83" viewBox="0 0 57 83" fill="none" xmlns="http://www.w3.org/2000/svg">
<path fill-rule="evenodd" clip-rule="evenodd" d="M45.7917 83H11.2083L4.29168 27.6667H52.7083L45.7917 83ZM24.1771 63.9792C25.6088 63.9792 26.7708 65.1412 26.7708 66.5729C26.7708 68.0047 25.6088 69.1667 24.1771 69.1667C22.7453 69.1667 21.5833 68.0047 21.5833 66.5729C21.5833 65.1412 22.7453 63.9792 24.1771 63.9792ZM35.4167 55.3333C37.3257 55.3333 38.875 56.8827 38.875 58.7917C38.875 60.7007 37.3257 62.25 35.4167 62.25C33.5077 62.25 31.9583 60.7007 31.9583 58.7917C31.9583 56.8827 33.5077 55.3333 35.4167 55.3333ZM23.3125 44.9583C26.176 44.9583 28.5 47.2823 28.5 50.1458C28.5 53.0093 26.176 55.3333 23.3125 55.3333C20.449 55.3333 18.125 53.0093 18.125 50.1458C18.125 47.2823 20.449 44.9583 23.3125 44.9583ZM29.1398 13.8333L36.3055 0L41.0053 2.19258L34.8633 13.8333H49.3849C49.3849 17.0219 53.1614 19.4289 56.1667 19.4289V24.2083H0.833344V19.4289C3.84209 19.4289 7.75001 17.0185 7.75001 13.8333H29.1398V13.8333Z" fill="#001838"/>
</svg>
